<mxfile host="app.diagrams.net" agent="Mozilla/5.0 (Windows NT 10.0; Win64; x64) AppleWebKit/537.36 (KHTML, like Gecko) Chrome/126.0.0.0 Safari/537.36" version="24.7.4">
  <diagram name="Page-1" id="e7e014a7-5840-1c2e-5031-d8a46d1fe8dd">
    <mxGraphModel dx="1195" dy="622" grid="1" gridSize="10" guides="1" tooltips="1" connect="1" arrows="1" fold="1" page="1" pageScale="1" pageWidth="1169" pageHeight="826" background="none" math="0" shadow="0">
      <root>
        <mxCell id="0" />
        <mxCell id="1" parent="0" />
        <mxCell id="2" value="Socket Read / Decoding Thread" style="swimlane;whiteSpace=wrap" parent="1" vertex="1">
          <mxGeometry x="164.5" y="128" width="280" height="452" as="geometry" />
        </mxCell>
        <mxCell id="YajSy7RYpYL-Cwf7EdQ--43" style="edgeStyle=orthogonalEdgeStyle;rounded=0;orthogonalLoop=1;jettySize=auto;html=1;" edge="1" parent="2" source="5" target="7">
          <mxGeometry relative="1" as="geometry" />
        </mxCell>
        <mxCell id="5" value="" style="ellipse;shape=startState;fillColor=#000000;strokeColor=#ff0000;" parent="2" vertex="1">
          <mxGeometry x="100" y="40" width="30" height="30" as="geometry" />
        </mxCell>
        <mxCell id="YajSy7RYpYL-Cwf7EdQ--42" style="edgeStyle=orthogonalEdgeStyle;rounded=0;orthogonalLoop=1;jettySize=auto;html=1;" edge="1" parent="2" source="7" target="YajSy7RYpYL-Cwf7EdQ--41">
          <mxGeometry relative="1" as="geometry" />
        </mxCell>
        <mxCell id="7" value="I/O Read" style="" parent="2" vertex="1">
          <mxGeometry x="60" y="110" width="110" height="50" as="geometry" />
        </mxCell>
        <mxCell id="YajSy7RYpYL-Cwf7EdQ--49" style="edgeStyle=orthogonalEdgeStyle;rounded=0;orthogonalLoop=1;jettySize=auto;html=1;" edge="1" parent="2" source="8" target="10">
          <mxGeometry relative="1" as="geometry" />
        </mxCell>
        <mxCell id="8" value="Decoding&#xa;( Decoding Buffer )" style="fillColor=#FFFFFF;strokeColor=#000000;" parent="2" vertex="1">
          <mxGeometry x="60" y="300" width="110" height="50" as="geometry" />
        </mxCell>
        <mxCell id="YajSy7RYpYL-Cwf7EdQ--53" style="edgeStyle=orthogonalEdgeStyle;rounded=0;orthogonalLoop=1;jettySize=auto;html=1;entryX=0;entryY=0.5;entryDx=0;entryDy=0;" edge="1" parent="2" source="10" target="7">
          <mxGeometry relative="1" as="geometry">
            <Array as="points">
              <mxPoint x="36" y="430" />
              <mxPoint x="36" y="135" />
            </Array>
          </mxGeometry>
        </mxCell>
        <mxCell id="10" value="Decoding Buffer&#xa;Copy&#xa;Temp Buffer" style="fillColor=#FFFFFF;strokeColor=#000000;" parent="2" vertex="1">
          <mxGeometry x="61" y="393" width="110" height="50" as="geometry" />
        </mxCell>
        <mxCell id="YajSy7RYpYL-Cwf7EdQ--45" style="edgeStyle=orthogonalEdgeStyle;rounded=0;orthogonalLoop=1;jettySize=auto;html=1;entryX=0.5;entryY=0;entryDx=0;entryDy=0;" edge="1" parent="2" source="YajSy7RYpYL-Cwf7EdQ--41" target="8">
          <mxGeometry relative="1" as="geometry" />
        </mxCell>
        <mxCell id="YajSy7RYpYL-Cwf7EdQ--48" style="edgeStyle=orthogonalEdgeStyle;rounded=0;orthogonalLoop=1;jettySize=auto;html=1;" edge="1" parent="2" source="YajSy7RYpYL-Cwf7EdQ--41" target="YajSy7RYpYL-Cwf7EdQ--46">
          <mxGeometry relative="1" as="geometry" />
        </mxCell>
        <mxCell id="YajSy7RYpYL-Cwf7EdQ--41" value="FrameBuffer (?)" style="rhombus;whiteSpace=wrap;html=1;" vertex="1" parent="2">
          <mxGeometry x="60" y="191" width="110" height="80" as="geometry" />
        </mxCell>
        <mxCell id="YajSy7RYpYL-Cwf7EdQ--65" style="edgeStyle=orthogonalEdgeStyle;rounded=0;orthogonalLoop=1;jettySize=auto;html=1;entryX=1;entryY=0.5;entryDx=0;entryDy=0;" edge="1" parent="2" source="YajSy7RYpYL-Cwf7EdQ--46" target="7">
          <mxGeometry relative="1" as="geometry">
            <Array as="points">
              <mxPoint x="236" y="135" />
            </Array>
          </mxGeometry>
        </mxCell>
        <mxCell id="YajSy7RYpYL-Cwf7EdQ--46" value="Others" style="text;html=1;align=center;verticalAlign=middle;whiteSpace=wrap;rounded=0;" vertex="1" parent="2">
          <mxGeometry x="215.5" y="210" width="60" height="42" as="geometry" />
        </mxCell>
        <mxCell id="YajSy7RYpYL-Cwf7EdQ--55" value="Notify" style="text;html=1;align=center;verticalAlign=middle;whiteSpace=wrap;rounded=0;" vertex="1" parent="2">
          <mxGeometry x="194.5" y="386" width="60" height="30" as="geometry" />
        </mxCell>
        <mxCell id="4" value="FrameBuffer Notifer / Request Thread" style="swimlane;whiteSpace=wrap" parent="1" vertex="1">
          <mxGeometry x="445" y="128" width="280" height="452" as="geometry">
            <mxRectangle x="724.5" y="128" width="140" height="30" as="alternateBounds" />
          </mxGeometry>
        </mxCell>
        <mxCell id="YajSy7RYpYL-Cwf7EdQ--58" style="edgeStyle=orthogonalEdgeStyle;rounded=0;orthogonalLoop=1;jettySize=auto;html=1;entryX=0.5;entryY=0;entryDx=0;entryDy=0;" edge="1" parent="4" source="33" target="YajSy7RYpYL-Cwf7EdQ--57">
          <mxGeometry relative="1" as="geometry" />
        </mxCell>
        <mxCell id="33" value="Waiting for Event" style="" parent="4" vertex="1">
          <mxGeometry x="77.5" y="112" width="125" height="50" as="geometry" />
        </mxCell>
        <mxCell id="YajSy7RYpYL-Cwf7EdQ--59" style="edgeStyle=orthogonalEdgeStyle;rounded=0;orthogonalLoop=1;jettySize=auto;html=1;" edge="1" parent="4" source="YajSy7RYpYL-Cwf7EdQ--52" target="33">
          <mxGeometry relative="1" as="geometry" />
        </mxCell>
        <mxCell id="YajSy7RYpYL-Cwf7EdQ--52" value="" style="ellipse;shape=startState;fillColor=#000000;strokeColor=#ff0000;" vertex="1" parent="4">
          <mxGeometry x="125" y="37" width="30" height="30" as="geometry" />
        </mxCell>
        <mxCell id="YajSy7RYpYL-Cwf7EdQ--91" style="edgeStyle=orthogonalEdgeStyle;rounded=0;orthogonalLoop=1;jettySize=auto;html=1;entryX=0.5;entryY=0;entryDx=0;entryDy=0;" edge="1" parent="4" source="YajSy7RYpYL-Cwf7EdQ--57" target="YajSy7RYpYL-Cwf7EdQ--81">
          <mxGeometry relative="1" as="geometry" />
        </mxCell>
        <mxCell id="YajSy7RYpYL-Cwf7EdQ--57" value="Temp Buffer&lt;div&gt;Copy&lt;/div&gt;&lt;div&gt;Rendering Buffer&lt;/div&gt;" style="rounded=0;whiteSpace=wrap;html=1;fillColor=#FFFFFF;strokeColor=#000000;fillStyle=auto;" vertex="1" parent="4">
          <mxGeometry x="80" y="192" width="120" height="60" as="geometry" />
        </mxCell>
        <mxCell id="YajSy7RYpYL-Cwf7EdQ--164" style="edgeStyle=orthogonalEdgeStyle;rounded=0;orthogonalLoop=1;jettySize=auto;html=1;" edge="1" parent="4" source="YajSy7RYpYL-Cwf7EdQ--81">
          <mxGeometry relative="1" as="geometry">
            <mxPoint x="140.5" y="392" as="targetPoint" />
          </mxGeometry>
        </mxCell>
        <mxCell id="YajSy7RYpYL-Cwf7EdQ--81" value="SendMessage" style="rounded=0;whiteSpace=wrap;html=1;" vertex="1" parent="4">
          <mxGeometry x="80.5" y="292" width="120" height="60" as="geometry" />
        </mxCell>
        <mxCell id="YajSy7RYpYL-Cwf7EdQ--167" style="edgeStyle=orthogonalEdgeStyle;rounded=0;orthogonalLoop=1;jettySize=auto;html=1;entryX=1;entryY=0.5;entryDx=0;entryDy=0;" edge="1" parent="4" source="YajSy7RYpYL-Cwf7EdQ--165" target="33">
          <mxGeometry relative="1" as="geometry">
            <Array as="points">
              <mxPoint x="223" y="416" />
              <mxPoint x="223" y="137" />
            </Array>
          </mxGeometry>
        </mxCell>
        <mxCell id="YajSy7RYpYL-Cwf7EdQ--165" value="Request FrameBuffer&lt;br&gt;I/O Write" style="rounded=0;whiteSpace=wrap;html=1;" vertex="1" parent="4">
          <mxGeometry x="83" y="392" width="120" height="48" as="geometry" />
        </mxCell>
        <mxCell id="YajSy7RYpYL-Cwf7EdQ--68" value="Main UI Thread" style="swimlane;whiteSpace=wrap" vertex="1" parent="1">
          <mxGeometry x="725" y="128" width="280" height="452" as="geometry">
            <mxRectangle x="724.5" y="128" width="140" height="30" as="alternateBounds" />
          </mxGeometry>
        </mxCell>
        <mxCell id="YajSy7RYpYL-Cwf7EdQ--84" style="edgeStyle=orthogonalEdgeStyle;rounded=0;orthogonalLoop=1;jettySize=auto;html=1;entryX=0.5;entryY=0;entryDx=0;entryDy=0;" edge="1" parent="YajSy7RYpYL-Cwf7EdQ--68" source="YajSy7RYpYL-Cwf7EdQ--70" target="YajSy7RYpYL-Cwf7EdQ--83">
          <mxGeometry relative="1" as="geometry" />
        </mxCell>
        <mxCell id="YajSy7RYpYL-Cwf7EdQ--70" value="GetMessage" style="" vertex="1" parent="YajSy7RYpYL-Cwf7EdQ--68">
          <mxGeometry x="79.5" y="112" width="130.5" height="50" as="geometry" />
        </mxCell>
        <mxCell id="YajSy7RYpYL-Cwf7EdQ--71" style="edgeStyle=orthogonalEdgeStyle;rounded=0;orthogonalLoop=1;jettySize=auto;html=1;" edge="1" parent="YajSy7RYpYL-Cwf7EdQ--68" source="YajSy7RYpYL-Cwf7EdQ--72" target="YajSy7RYpYL-Cwf7EdQ--70">
          <mxGeometry relative="1" as="geometry" />
        </mxCell>
        <mxCell id="YajSy7RYpYL-Cwf7EdQ--72" value="" style="ellipse;shape=startState;fillColor=#000000;strokeColor=#ff0000;" vertex="1" parent="YajSy7RYpYL-Cwf7EdQ--68">
          <mxGeometry x="129" y="37" width="30" height="30" as="geometry" />
        </mxCell>
        <mxCell id="YajSy7RYpYL-Cwf7EdQ--88" style="edgeStyle=orthogonalEdgeStyle;rounded=0;orthogonalLoop=1;jettySize=auto;html=1;" edge="1" parent="YajSy7RYpYL-Cwf7EdQ--68" source="YajSy7RYpYL-Cwf7EdQ--83" target="YajSy7RYpYL-Cwf7EdQ--86">
          <mxGeometry relative="1" as="geometry" />
        </mxCell>
        <mxCell id="YajSy7RYpYL-Cwf7EdQ--83" value="WM_PAINT" style="rhombus;whiteSpace=wrap;html=1;" vertex="1" parent="YajSy7RYpYL-Cwf7EdQ--68">
          <mxGeometry x="80" y="182" width="130" height="80" as="geometry" />
        </mxCell>
        <mxCell id="YajSy7RYpYL-Cwf7EdQ--90" style="edgeStyle=orthogonalEdgeStyle;rounded=0;orthogonalLoop=1;jettySize=auto;html=1;entryX=1;entryY=0.5;entryDx=0;entryDy=0;" edge="1" parent="YajSy7RYpYL-Cwf7EdQ--68" source="YajSy7RYpYL-Cwf7EdQ--86" target="YajSy7RYpYL-Cwf7EdQ--70">
          <mxGeometry relative="1" as="geometry">
            <Array as="points">
              <mxPoint x="230" y="322" />
              <mxPoint x="230" y="137" />
            </Array>
          </mxGeometry>
        </mxCell>
        <mxCell id="YajSy7RYpYL-Cwf7EdQ--86" value="&lt;div&gt;Rendering Buffer&lt;/div&gt;StretchBit" style="rounded=0;whiteSpace=wrap;html=1;" vertex="1" parent="YajSy7RYpYL-Cwf7EdQ--68">
          <mxGeometry x="85" y="292" width="120" height="60" as="geometry" />
        </mxCell>
        <mxCell id="YajSy7RYpYL-Cwf7EdQ--87" style="edgeStyle=orthogonalEdgeStyle;rounded=0;orthogonalLoop=1;jettySize=auto;html=1;entryX=0;entryY=0.5;entryDx=0;entryDy=0;strokeColor=#FF1212;strokeWidth=2;" edge="1" parent="1" source="YajSy7RYpYL-Cwf7EdQ--81" target="YajSy7RYpYL-Cwf7EdQ--70">
          <mxGeometry relative="1" as="geometry">
            <Array as="points">
              <mxPoint x="760" y="450" />
              <mxPoint x="760" y="265" />
            </Array>
          </mxGeometry>
        </mxCell>
        <mxCell id="YajSy7RYpYL-Cwf7EdQ--92" style="edgeStyle=orthogonalEdgeStyle;rounded=0;orthogonalLoop=1;jettySize=auto;html=1;exitX=1;exitY=0.5;exitDx=0;exitDy=0;entryX=0;entryY=0.5;entryDx=0;entryDy=0;strokeColor=#FF0F1F;strokeWidth=2;" edge="1" parent="1" source="10" target="33">
          <mxGeometry relative="1" as="geometry">
            <Array as="points">
              <mxPoint x="480" y="546" />
              <mxPoint x="480" y="265" />
            </Array>
          </mxGeometry>
        </mxCell>
        <mxCell id="YajSy7RYpYL-Cwf7EdQ--182" style="edgeStyle=orthogonalEdgeStyle;rounded=0;orthogonalLoop=1;jettySize=auto;html=1;exitX=1;exitY=0.5;exitDx=0;exitDy=0;entryX=0;entryY=0.5;entryDx=0;entryDy=0;strokeColor=#FF0F1F;strokeWidth=2;" edge="1" source="YajSy7RYpYL-Cwf7EdQ--191" target="YajSy7RYpYL-Cwf7EdQ--200" parent="1">
          <mxGeometry relative="1" as="geometry">
            <Array as="points">
              <mxPoint x="479.5" y="1038" />
              <mxPoint x="479.5" y="757" />
            </Array>
          </mxGeometry>
        </mxCell>
        <mxCell id="YajSy7RYpYL-Cwf7EdQ--183" value="Socket Read / Decoding Thread" style="swimlane;whiteSpace=wrap" vertex="1" parent="1">
          <mxGeometry x="164" y="620" width="280" height="452" as="geometry" />
        </mxCell>
        <mxCell id="YajSy7RYpYL-Cwf7EdQ--184" style="edgeStyle=orthogonalEdgeStyle;rounded=0;orthogonalLoop=1;jettySize=auto;html=1;" edge="1" parent="YajSy7RYpYL-Cwf7EdQ--183" source="YajSy7RYpYL-Cwf7EdQ--185" target="YajSy7RYpYL-Cwf7EdQ--187">
          <mxGeometry relative="1" as="geometry" />
        </mxCell>
        <mxCell id="YajSy7RYpYL-Cwf7EdQ--185" value="" style="ellipse;shape=startState;fillColor=#000000;strokeColor=#ff0000;" vertex="1" parent="YajSy7RYpYL-Cwf7EdQ--183">
          <mxGeometry x="100" y="40" width="30" height="30" as="geometry" />
        </mxCell>
        <mxCell id="YajSy7RYpYL-Cwf7EdQ--186" style="edgeStyle=orthogonalEdgeStyle;rounded=0;orthogonalLoop=1;jettySize=auto;html=1;" edge="1" parent="YajSy7RYpYL-Cwf7EdQ--183" source="YajSy7RYpYL-Cwf7EdQ--187" target="YajSy7RYpYL-Cwf7EdQ--194">
          <mxGeometry relative="1" as="geometry" />
        </mxCell>
        <mxCell id="YajSy7RYpYL-Cwf7EdQ--187" value="I/O Read" style="" vertex="1" parent="YajSy7RYpYL-Cwf7EdQ--183">
          <mxGeometry x="60" y="110" width="110" height="50" as="geometry" />
        </mxCell>
        <mxCell id="YajSy7RYpYL-Cwf7EdQ--189" value="Decoding&#xa;( Decoding Buffer )" style="fillColor=#FFFFFF;strokeColor=#000000;" vertex="1" parent="YajSy7RYpYL-Cwf7EdQ--183">
          <mxGeometry x="60" y="300" width="110" height="50" as="geometry" />
        </mxCell>
        <mxCell id="YajSy7RYpYL-Cwf7EdQ--192" style="edgeStyle=orthogonalEdgeStyle;rounded=0;orthogonalLoop=1;jettySize=auto;html=1;entryX=0.5;entryY=0;entryDx=0;entryDy=0;" edge="1" parent="YajSy7RYpYL-Cwf7EdQ--183" source="YajSy7RYpYL-Cwf7EdQ--194" target="YajSy7RYpYL-Cwf7EdQ--189">
          <mxGeometry relative="1" as="geometry" />
        </mxCell>
        <mxCell id="YajSy7RYpYL-Cwf7EdQ--193" style="edgeStyle=orthogonalEdgeStyle;rounded=0;orthogonalLoop=1;jettySize=auto;html=1;" edge="1" parent="YajSy7RYpYL-Cwf7EdQ--183" source="YajSy7RYpYL-Cwf7EdQ--194" target="YajSy7RYpYL-Cwf7EdQ--196">
          <mxGeometry relative="1" as="geometry" />
        </mxCell>
        <mxCell id="YajSy7RYpYL-Cwf7EdQ--194" value="FrameBuffer (?)" style="rhombus;whiteSpace=wrap;html=1;" vertex="1" parent="YajSy7RYpYL-Cwf7EdQ--183">
          <mxGeometry x="60" y="191" width="110" height="80" as="geometry" />
        </mxCell>
        <mxCell id="YajSy7RYpYL-Cwf7EdQ--195" style="edgeStyle=orthogonalEdgeStyle;rounded=0;orthogonalLoop=1;jettySize=auto;html=1;entryX=1;entryY=0.5;entryDx=0;entryDy=0;" edge="1" parent="YajSy7RYpYL-Cwf7EdQ--183" source="YajSy7RYpYL-Cwf7EdQ--196" target="YajSy7RYpYL-Cwf7EdQ--187">
          <mxGeometry relative="1" as="geometry">
            <Array as="points">
              <mxPoint x="236" y="135" />
            </Array>
          </mxGeometry>
        </mxCell>
        <mxCell id="YajSy7RYpYL-Cwf7EdQ--196" value="Others" style="text;html=1;align=center;verticalAlign=middle;whiteSpace=wrap;rounded=0;" vertex="1" parent="YajSy7RYpYL-Cwf7EdQ--183">
          <mxGeometry x="215.5" y="210" width="60" height="42" as="geometry" />
        </mxCell>
        <mxCell id="YajSy7RYpYL-Cwf7EdQ--197" value="Notify" style="text;html=1;align=center;verticalAlign=middle;whiteSpace=wrap;rounded=0;" vertex="1" parent="YajSy7RYpYL-Cwf7EdQ--183">
          <mxGeometry x="194.5" y="386" width="60" height="30" as="geometry" />
        </mxCell>
        <mxCell id="YajSy7RYpYL-Cwf7EdQ--198" value="FrameBuffer Notifer / Request Thread" style="swimlane;whiteSpace=wrap" vertex="1" parent="1">
          <mxGeometry x="444.5" y="620" width="280" height="452" as="geometry">
            <mxRectangle x="724.5" y="128" width="140" height="30" as="alternateBounds" />
          </mxGeometry>
        </mxCell>
        <mxCell id="YajSy7RYpYL-Cwf7EdQ--199" style="edgeStyle=orthogonalEdgeStyle;rounded=0;orthogonalLoop=1;jettySize=auto;html=1;entryX=0.5;entryY=0;entryDx=0;entryDy=0;" edge="1" parent="YajSy7RYpYL-Cwf7EdQ--198" source="YajSy7RYpYL-Cwf7EdQ--200" target="YajSy7RYpYL-Cwf7EdQ--204">
          <mxGeometry relative="1" as="geometry" />
        </mxCell>
        <mxCell id="YajSy7RYpYL-Cwf7EdQ--200" value="Waiting for Event" style="" vertex="1" parent="YajSy7RYpYL-Cwf7EdQ--198">
          <mxGeometry x="77.5" y="112" width="125" height="50" as="geometry" />
        </mxCell>
        <mxCell id="YajSy7RYpYL-Cwf7EdQ--201" style="edgeStyle=orthogonalEdgeStyle;rounded=0;orthogonalLoop=1;jettySize=auto;html=1;" edge="1" parent="YajSy7RYpYL-Cwf7EdQ--198" source="YajSy7RYpYL-Cwf7EdQ--202" target="YajSy7RYpYL-Cwf7EdQ--200">
          <mxGeometry relative="1" as="geometry" />
        </mxCell>
        <mxCell id="YajSy7RYpYL-Cwf7EdQ--202" value="" style="ellipse;shape=startState;fillColor=#000000;strokeColor=#ff0000;" vertex="1" parent="YajSy7RYpYL-Cwf7EdQ--198">
          <mxGeometry x="125" y="37" width="30" height="30" as="geometry" />
        </mxCell>
        <mxCell id="YajSy7RYpYL-Cwf7EdQ--224" style="edgeStyle=orthogonalEdgeStyle;rounded=0;orthogonalLoop=1;jettySize=auto;html=1;" edge="1" parent="YajSy7RYpYL-Cwf7EdQ--198" source="YajSy7RYpYL-Cwf7EdQ--204" target="YajSy7RYpYL-Cwf7EdQ--208">
          <mxGeometry relative="1" as="geometry" />
        </mxCell>
        <mxCell id="YajSy7RYpYL-Cwf7EdQ--204" value="Temp Buffer&lt;div&gt;Copy&lt;/div&gt;&lt;div&gt;Rendering Buffer&lt;/div&gt;" style="rounded=0;whiteSpace=wrap;html=1;fillColor=#FFFFFF;strokeColor=#000000;fillStyle=auto;" vertex="1" parent="YajSy7RYpYL-Cwf7EdQ--198">
          <mxGeometry x="80" y="192" width="120" height="60" as="geometry" />
        </mxCell>
        <mxCell id="YajSy7RYpYL-Cwf7EdQ--207" style="edgeStyle=orthogonalEdgeStyle;rounded=0;orthogonalLoop=1;jettySize=auto;html=1;entryX=1;entryY=0.5;entryDx=0;entryDy=0;" edge="1" parent="YajSy7RYpYL-Cwf7EdQ--198" source="YajSy7RYpYL-Cwf7EdQ--208" target="YajSy7RYpYL-Cwf7EdQ--200">
          <mxGeometry relative="1" as="geometry">
            <Array as="points">
              <mxPoint x="223" y="320" />
              <mxPoint x="223" y="137" />
            </Array>
          </mxGeometry>
        </mxCell>
        <mxCell id="YajSy7RYpYL-Cwf7EdQ--208" value="Request FrameBuffer&lt;br&gt;I/O Write" style="rounded=0;whiteSpace=wrap;html=1;" vertex="1" parent="YajSy7RYpYL-Cwf7EdQ--198">
          <mxGeometry x="80.5" y="300" width="120" height="48" as="geometry" />
        </mxCell>
        <mxCell id="YajSy7RYpYL-Cwf7EdQ--209" value="Rendering Thread" style="swimlane;whiteSpace=wrap" vertex="1" parent="1">
          <mxGeometry x="724.5" y="620" width="280" height="452" as="geometry">
            <mxRectangle x="724.5" y="128" width="140" height="30" as="alternateBounds" />
          </mxGeometry>
        </mxCell>
        <mxCell id="YajSy7RYpYL-Cwf7EdQ--243" style="edgeStyle=orthogonalEdgeStyle;rounded=0;orthogonalLoop=1;jettySize=auto;html=1;entryX=0.5;entryY=0;entryDx=0;entryDy=0;" edge="1" parent="YajSy7RYpYL-Cwf7EdQ--209" source="YajSy7RYpYL-Cwf7EdQ--213" target="YajSy7RYpYL-Cwf7EdQ--241">
          <mxGeometry relative="1" as="geometry" />
        </mxCell>
        <mxCell id="YajSy7RYpYL-Cwf7EdQ--213" value="" style="ellipse;shape=startState;fillColor=#000000;strokeColor=#ff0000;" vertex="1" parent="YajSy7RYpYL-Cwf7EdQ--209">
          <mxGeometry x="129" y="37" width="30" height="30" as="geometry" />
        </mxCell>
        <mxCell id="YajSy7RYpYL-Cwf7EdQ--232" style="edgeStyle=orthogonalEdgeStyle;rounded=0;orthogonalLoop=1;jettySize=auto;html=1;entryX=1;entryY=0.5;entryDx=0;entryDy=0;" edge="1" parent="YajSy7RYpYL-Cwf7EdQ--209" source="YajSy7RYpYL-Cwf7EdQ--226">
          <mxGeometry relative="1" as="geometry">
            <mxPoint x="209" y="144.5" as="targetPoint" />
            <Array as="points">
              <mxPoint x="229" y="236" />
              <mxPoint x="229" y="145" />
            </Array>
          </mxGeometry>
        </mxCell>
        <mxCell id="YajSy7RYpYL-Cwf7EdQ--226" value="&lt;div&gt;Rendering Buffer&lt;/div&gt;StretchBit" style="rounded=0;whiteSpace=wrap;html=1;" vertex="1" parent="YajSy7RYpYL-Cwf7EdQ--209">
          <mxGeometry x="84" y="200" width="120" height="60" as="geometry" />
        </mxCell>
        <mxCell id="YajSy7RYpYL-Cwf7EdQ--242" style="edgeStyle=orthogonalEdgeStyle;rounded=0;orthogonalLoop=1;jettySize=auto;html=1;" edge="1" parent="YajSy7RYpYL-Cwf7EdQ--209" source="YajSy7RYpYL-Cwf7EdQ--241" target="YajSy7RYpYL-Cwf7EdQ--226">
          <mxGeometry relative="1" as="geometry" />
        </mxCell>
        <mxCell id="YajSy7RYpYL-Cwf7EdQ--241" value="Checking&lt;div&gt;HWND Aspect Ratio&lt;/div&gt;" style="rounded=0;whiteSpace=wrap;html=1;fillColor=#FFFFFF;strokeColor=#000000;fillStyle=auto;" vertex="1" parent="YajSy7RYpYL-Cwf7EdQ--209">
          <mxGeometry x="84" y="110" width="120" height="60" as="geometry" />
        </mxCell>
        <mxCell id="YajSy7RYpYL-Cwf7EdQ--191" value="Decoding Buffer&#xa;Copy&#xa;Temp Buffer" style="fillColor=#FFFFFF;strokeColor=#000000;" vertex="1" parent="1">
          <mxGeometry x="224" y="1013" width="110" height="50" as="geometry" />
        </mxCell>
        <mxCell id="YajSy7RYpYL-Cwf7EdQ--190" style="edgeStyle=orthogonalEdgeStyle;rounded=0;orthogonalLoop=1;jettySize=auto;html=1;entryX=0;entryY=0.5;entryDx=0;entryDy=0;" edge="1" parent="1" source="YajSy7RYpYL-Cwf7EdQ--191" target="YajSy7RYpYL-Cwf7EdQ--187">
          <mxGeometry relative="1" as="geometry">
            <Array as="points">
              <mxPoint x="204" y="1050" />
              <mxPoint x="204" y="755" />
            </Array>
          </mxGeometry>
        </mxCell>
        <mxCell id="YajSy7RYpYL-Cwf7EdQ--237" style="edgeStyle=orthogonalEdgeStyle;rounded=0;orthogonalLoop=1;jettySize=auto;html=1;entryX=0.5;entryY=0;entryDx=0;entryDy=0;" edge="1" parent="1" source="YajSy7RYpYL-Cwf7EdQ--189" target="YajSy7RYpYL-Cwf7EdQ--191">
          <mxGeometry relative="1" as="geometry" />
        </mxCell>
        <mxCell id="YajSy7RYpYL-Cwf7EdQ--238" value="개선이전" style="text;html=1;align=center;verticalAlign=middle;whiteSpace=wrap;rounded=0;fontStyle=1" vertex="1" parent="1">
          <mxGeometry x="164" y="90" width="60" height="30" as="geometry" />
        </mxCell>
        <mxCell id="YajSy7RYpYL-Cwf7EdQ--239" value="개선이후" style="text;html=1;align=center;verticalAlign=middle;whiteSpace=wrap;rounded=0;fontStyle=1" vertex="1" parent="1">
          <mxGeometry x="164" y="590" width="60" height="30" as="geometry" />
        </mxCell>
      </root>
    </mxGraphModel>
  </diagram>
</mxfile>
